<!DOCTYPE svg PUBLIC "-//W3C//DTD SVG 1.1//EN" "http://www.w3.org/Graphics/SVG/1.1/DTD/svg11.dtd">
<!-- Uploaded to: SVG Repo, www.svgrepo.com, Transformed by: SVG Repo Mixer Tools -->
<svg fill="#000000" version="1.1" id="Capa_1" xmlns="http://www.w3.org/2000/svg" xmlns:xlink="http://www.w3.org/1999/xlink" width="800px" height="800px" viewBox="-9.64 -9.64 115.72 115.72" xml:space="preserve">
<g id="SVGRepo_bgCarrier" stroke-width="0">
<rect x="-9.64" y="-9.64" width="115.72" height="115.72" rx="0" fill="#fafafa" strokewidth="0"/>
</g>
<g id="SVGRepo_tracerCarrier" stroke-linecap="round" stroke-linejoin="round"/>
<g id="SVGRepo_iconCarrier"> <g> <path d="M84.495,34.512c-0.202-5.841-1.519-11.413-4.606-16.403C72.316,5.874,61.29-0.194,46.864,0.005 c-4.431,0.061-8.68,1.003-12.767,2.686c-10.008,4.12-16.825,11.234-20.143,21.595c-1.592,4.971-2.039,10.096-2.036,15.288 l0.048,56.867l26.048,0.001l-0.013-56.597c0.003-1.867,0.197-3.746,0.466-5.595c0.292-2.015,1.026-3.904,2.344-5.495 c2.037-2.462,4.771-3.171,7.836-3.029c6.818,0.314,12.256,7.824,8.01,15.049c-2.407,4.094-7.095,5.842-11.234,4.272 c-1.176-0.445-2.364-1.153-3.543-1.771l0.023,28.446l0.542,0.068c1.153,0.079,2.304,0.212,3.457,0.3 c3.998,0.306,7.965,0.108,11.843-0.96c10.562-2.915,18.04-9.628,23.108-19.139C83.749,46.556,84.706,40.636,84.495,34.512z"/> </g> </g>
</svg>