<!DOCTYPE svg PUBLIC "-//W3C//DTD SVG 1.1//EN" "http://www.w3.org/Graphics/SVG/1.1/DTD/svg11.dtd">
<!-- Uploaded to: SVG Repo, www.svgrepo.com, Transformed by: SVG Repo Mixer Tools -->
<svg fill="#f86f03" width="800px" height="800px" viewBox="-10 0 46 46" xmlns="http://www.w3.org/2000/svg" stroke="#f86f03">
<g id="SVGRepo_bgCarrier" stroke-width="0"/>
<g id="SVGRepo_tracerCarrier" stroke-linecap="round" stroke-linejoin="round"/>
<g id="SVGRepo_iconCarrier"> <path id="_27.Phone" data-name="27.Phone" d="M33,47H15a4,4,0,0,1-4-4V5a4,4,0,0,1,4-4H33a4,4,0,0,1,4,4V43A4,4,0,0,1,33,47ZM35,5a2,2,0,0,0-2-2H15a2,2,0,0,0-2,2V9H35Zm0,6H13V37H35Zm0,28H13v4a2,2,0,0,0,2,2H33a2,2,0,0,0,2-2ZM24,44a2,2,0,1,1,2-2A2,2,0,0,1,24,44ZM17,14h2a1,1,0,0,1,1,1v2a1,1,0,0,1-1,1H17a1,1,0,0,1-1-1V15A1,1,0,0,1,17,14Zm0,7h2a1,1,0,0,1,1,1v2a1,1,0,0,1-1,1H17a1,1,0,0,1-1-1V22A1,1,0,0,1,17,21Zm0,7h2a1,1,0,0,1,1,1v2a1,1,0,0,1-1,1H17a1,1,0,0,1-1-1V29A1,1,0,0,1,17,28Zm6-14h2a1,1,0,0,1,1,1v2a1,1,0,0,1-1,1H23a1,1,0,0,1-1-1V15A1,1,0,0,1,23,14Zm0,7h2a1,1,0,0,1,1,1v2a1,1,0,0,1-1,1H23a1,1,0,0,1-1-1V22A1,1,0,0,1,23,21Zm0,7h2a1,1,0,0,1,1,1v2a1,1,0,0,1-1,1H23a1,1,0,0,1-1-1V29A1,1,0,0,1,23,28Zm6-14h2a1,1,0,0,1,1,1v2a1,1,0,0,1-1,1H29a1,1,0,0,1-1-1V15A1,1,0,0,1,29,14Zm0,7h2a1,1,0,0,1,1,1v2a1,1,0,0,1-1,1H29a1,1,0,0,1-1-1V22A1,1,0,0,1,29,21ZM21,5h6a1,1,0,0,1,0,2H21a1,1,0,0,1,0-2Z" transform="translate(-11 -1)" fill-rule="evenodd"/> </g>
</svg>