<!DOCTYPE svg PUBLIC "-//W3C//DTD SVG 1.1//EN" "http://www.w3.org/Graphics/SVG/1.1/DTD/svg11.dtd">
<!-- Uploaded to: SVG Repo, www.svgrepo.com, Transformed by: SVG Repo Mixer Tools -->
<svg fill="#fafafa" height="800px" width="800px" version="1.1" id="Layer_1" xmlns="http://www.w3.org/2000/svg" xmlns:xlink="http://www.w3.org/1999/xlink" viewBox="-51.2 -51.2 614.40 614.40" xml:space="preserve">
<g id="SVGRepo_bgCarrier" stroke-width="0">
<rect x="-51.2" y="-51.2" width="614.40" height="614.40" rx="307.2" fill="#f86f03" strokewidth="0"/>
</g>
<g id="SVGRepo_tracerCarrier" stroke-linecap="round" stroke-linejoin="round"/>
<g id="SVGRepo_iconCarrier"> <g> <g> <path d="M97.42,172.561H36.238c-4.318,0-7.818,3.5-7.818,7.818v38.503c0,4.319,3.5,7.818,7.818,7.818H97.42 c4.318,0,7.818-3.5,7.818-7.818v-38.503C105.238,176.061,101.737,172.561,97.42,172.561z M89.602,211.063H44.057v-22.866h45.546 V211.063z"/> </g> </g> <g> <g> <path d="M97.42,273.611H36.238c-4.318,0-7.818,3.5-7.818,7.818v38.504c0,4.319,3.5,7.818,7.818,7.818H97.42 c4.318,0,7.818-3.5,7.818-7.818v-38.504C105.238,277.11,101.737,273.611,97.42,273.611z M89.602,312.114H44.057v-22.867h45.546 V312.114z"/> </g> </g> <g> <g> <path d="M337.611,204.355H174.389c-4.318,0-7.818,3.5-7.818,7.818v38.503c0,4.319,3.5,7.818,7.818,7.818h163.223 c4.318,0,7.819-3.5,7.819-7.818v-38.503C345.43,207.854,341.93,204.355,337.611,204.355z M209.161,242.858h-26.954v-22.866h26.954 V242.858z M248.182,242.858h-23.384v-22.866h23.384V242.858z M287.202,242.858h-23.384v-22.866h23.384V242.858z M329.792,242.858 h-26.954v-22.866h26.954V242.858z"/> </g> </g> <g> <g> <path d="M475.761,172.561h-61.182c-4.318,0-7.818,3.5-7.818,7.818v38.503c0,4.319,3.5,7.818,7.818,7.818h61.182 c4.318,0,7.818-3.5,7.818-7.818v-38.503C483.579,176.061,480.079,172.561,475.761,172.561z M467.943,211.063h-45.546v-22.866 h45.546V211.063z"/> </g> </g> <g> <g> <path d="M475.761,273.611h-61.182c-4.318,0-7.818,3.5-7.818,7.818v38.504c0,4.319,3.5,7.818,7.818,7.818h61.182 c4.318,0,7.818-3.5,7.818-7.818v-38.504C483.579,277.11,480.079,273.611,475.761,273.611z M467.943,312.114h-45.546v-22.867 h45.546V312.114z"/> </g> </g> <g> <g> <path d="M504.181,105.332H386.159c-4.318,0-7.818,3.5-7.818,7.818v49.608h-32.912v-20.641c0-4.318-3.5-7.818-7.819-7.818h-73.25 v-22.335h83.674c4.318,0,7.818-3.5,7.818-7.818V50.734c0-4.318-3.5-7.818-7.818-7.818h-83.701 c-0.269-4.074-3.65-7.297-7.792-7.297c-4.318,0-7.818,3.5-7.818,7.818v7.297v53.412v30.154h-74.335 c-4.318,0-7.818,3.5-7.818,7.818v20.641h-32.912V113.15c0-4.318-3.5-7.818-7.818-7.818H7.818c-4.318,0-7.818,3.5-7.818,7.818 v355.411c0,4.319,3.5,7.818,7.818,7.818h118.001c0.007,0,0.013,0.001,0.02,0.001h270.745c0.007,0,0.013-0.001,0.02-0.001h107.577 c4.318,0,7.818-3.5,7.818-7.818V113.15C512,108.832,508.5,105.332,504.181,105.332z M264.361,58.553h75.856v37.775h-75.856V58.553 z M118.023,460.743H15.637v-202.77h102.386V460.743z M118.023,170.577v71.759H15.637V120.969h102.386V170.577z M295.056,460.743 h-78.112v-12.637h78.112V460.743z M295.056,432.469h-78.112v-13.272h78.112V432.469z M295.056,403.561h-78.112v-74.802h78.112 V403.561z M310.693,460.745V320.941c0-4.319-3.501-7.818-7.819-7.818h-93.748c-4.318,0-7.818,3.5-7.818,7.818v139.803h-67.649 V178.395h40.729c4.318,0,7.818-3.5,7.818-7.818v-20.641h147.586v20.641c0,4.318,3.5,7.818,7.818,7.818h40.729v282.349H310.693z M496.363,460.743H393.977v-202.77h102.386V460.743z M496.363,242.337H393.977V120.969h102.386V242.337z"/> </g> </g> </g>
</svg>