<!DOCTYPE svg PUBLIC "-//W3C//DTD SVG 1.1//EN" "http://www.w3.org/Graphics/SVG/1.1/DTD/svg11.dtd">
<!-- Uploaded to: SVG Repo, www.svgrepo.com, Transformed by: SVG Repo Mixer Tools -->
<svg width="800px" height="800px" viewBox="0 0 25 25" xmlns="http://www.w3.org/2000/svg" fill="#000000">
<g id="SVGRepo_bgCarrier" stroke-width="0"/>
<g id="SVGRepo_tracerCarrier" stroke-linecap="round" stroke-linejoin="round"/>
<g id="SVGRepo_iconCarrier"> <defs> <style>.cls-1{fill:#ff7900;}</style> </defs> <g data-name="stopwatch 2" id="stopwatch_2"> <path class="cls-1" d="M19.83,8.46l1.25-1.53a.78.78,0,0,0,.19-.6.8.8,0,0,0-.3-.56l-1-.85A.84.84,0,0,0,18.76,5L17.57,6.48A9.35,9.35,0,0,0,14,5.13V4h1.17A.83.83,0,0,0,16,3.17V1.83A.83.83,0,0,0,15.17,1H9.83A.83.83,0,0,0,9,1.83V3.17A.83.83,0,0,0,9.83,4H11V5.13A9.45,9.45,0,0,0,7.22,6.61L5.93,5a.82.82,0,0,0-.56-.3.81.81,0,0,0-.61.19l-1,.85a.8.8,0,0,0-.3.56.81.81,0,0,0,.18.6L5,8.59,5,8.64a9.49,9.49,0,1,0,14.79-.18Zm-.4-2.66.77.63L19.14,7.72a9.56,9.56,0,0,0-.75-.66ZM10,2h5V3H10Zm2,2h1V5c-.17,0-.33,0-.5,0s-.33,0-.5,0ZM4.49,6.43l.78-.63L6.42,7.21a9.33,9.33,0,0,0-.73.68ZM12.5,23A8.5,8.5,0,1,1,21,14.5,8.51,8.51,0,0,1,12.5,23Z"/> <path class="cls-1" d="M19.25,14H13V7.75a.5.5,0,0,0-.5-.5,7.25,7.25,0,1,0,7.25,7.25A.5.5,0,0,0,19.25,14ZM12.5,20.75A6.25,6.25,0,0,1,12,8.27V14.5a.5.5,0,0,0,.5.5h6.23A6.26,6.26,0,0,1,12.5,20.75Z"/> </g> </g>
</svg>